HIERARCHY
ROOT joint_Root
{
	OFFSET 0.0 0.0 0.0
	CHANNELS 6 Xposition Yposition Zposition Zrotation Xrotation Yrotation 
	JOINT Hips
	{
		OFFSET -0.726466 93.3139 -2.00062
		CHANNELS 6 Xposition Yposition Zposition Zrotation Xrotation Yrotation 
		JOINT Spine
		{
			OFFSET 15.7357 0.0 0.0
			CHANNELS 6 Xposition Yposition Zposition Zrotation Xrotation Yrotation 
			JOINT Chest
			{
				OFFSET 8.98455 -0.406207 0.0
				CHANNELS 6 Xposition Yposition Zposition Zrotation Xrotation Yrotation 
				JOINT Neck
				{
					OFFSET 16.3773 0.0 0.0
					CHANNELS 6 Xposition Yposition Zposition Zrotation Xrotation Yrotation 
					JOINT Head
					{
						OFFSET 6.45672 0.0 0.0
						CHANNELS 6 Xposition Yposition Zposition Zrotation Xrotation Yrotation 
						End Site
						{
							OFFSET 0.0 0.0 0.0
						}
					}
				}
				JOINT Shoulder_L
				{
					OFFSET 12.9942 -0.242716 4.98039
					CHANNELS 6 Xposition Yposition Zposition Zrotation Xrotation Yrotation 
					JOINT UpperArm_L
					{
						OFFSET 5.34809 0.0 0.0
						CHANNELS 6 Xposition Yposition Zposition Zrotation Xrotation Yrotation 
						JOINT LowerArm_L
						{
							OFFSET 24.3286 1.87007e-05 0.0
							CHANNELS 6 Xposition Yposition Zposition Zrotation Xrotation Yrotation 
							JOINT Hand_L
							{
								OFFSET 22.2916 0.0 0.0
								CHANNELS 6 Xposition Yposition Zposition Zrotation Xrotation Yrotation 
								End Site
								{
									OFFSET 0.0 0.0 0.0
								}
							}
						}
					}
				}
				JOINT Shoulder_R
				{
					OFFSET 12.9945 -0.242716 -4.98039
					CHANNELS 6 Xposition Yposition Zposition Zrotation Xrotation Yrotation 
					JOINT UpperArm_R
					{
						OFFSET -5.34813 0.0 0.0
						CHANNELS 6 Xposition Yposition Zposition Zrotation Xrotation Yrotation 
						JOINT LowerArm_R
						{
							OFFSET -24.3289 0.000322201 0.0
							CHANNELS 6 Xposition Yposition Zposition Zrotation Xrotation Yrotation 
							JOINT Hand_R
							{
								OFFSET -22.2915 -0.000108084 0.0
								CHANNELS 6 Xposition Yposition Zposition Zrotation Xrotation Yrotation 
								End Site
								{
									OFFSET 0.0 0.0 0.0
								}
							}
						}
					}
				}
			}
		}
		JOINT UpperLeg_L
		{
			OFFSET -2.19248 -6.46944 0.0
			CHANNELS 6 Xposition Yposition Zposition Zrotation Xrotation Yrotation 
			JOINT LowerLeg_L
			{
				OFFSET 39.0811 0.0 -1.23785e-05
				CHANNELS 6 Xposition Yposition Zposition Zrotation Xrotation Yrotation 
				JOINT Foot_L
				{
					OFFSET 40.9854 0.0 -1.26872e-05
					CHANNELS 6 Xposition Yposition Zposition Zrotation Xrotation Yrotation 
					JOINT Toes_L
					{
						OFFSET 11.7543 0.0 0.0
						CHANNELS 6 Xposition Yposition Zposition Zrotation Xrotation Yrotation 
						End Site
						{
							OFFSET 0.0 0.0 0.0
						}
					}
				}
			}
		}
		JOINT UpperLeg_R
		{
			OFFSET -2.19251 6.46944 0.0
			CHANNELS 6 Xposition Yposition Zposition Zrotation Xrotation Yrotation 
			JOINT LowerLeg_R
			{
				OFFSET -39.0811 -0.00228153 -0.0401928
				CHANNELS 6 Xposition Yposition Zposition Zrotation Xrotation Yrotation 
				JOINT Foot_R
				{
					OFFSET -40.9854 0.0 0.0
					CHANNELS 6 Xposition Yposition Zposition Zrotation Xrotation Yrotation 
					JOINT Toes_R
					{
						OFFSET -11.7543 0.0 0.0
						CHANNELS 6 Xposition Yposition Zposition Zrotation Xrotation Yrotation 
						End Site
						{
							OFFSET 0.0 0.0 0.0
						}
					}
				}
			}
		}
	}
}
MOTION
Frames:	7
Frame Time:	0.0333333
0.000000 0.000000 0.000000 0.000000 0.000000 -0.000000 -0.796104 92.085900 -0.781217 88.010400 0.745924 2.833610 15.735700 0.000005 -0.000001 83.600400 85.653300 -83.122100 8.984550 -0.406207 -0.000000 0.877693 -0.997356 0.963510 16.377300 -0.000001 -0.000001 1.340230 -2.329950 0.530606 6.456720 -0.000001 -0.000000 3.105590 -2.126800 -0.766067 12.994200 -0.242716 4.980390 -89.978900 -0.063459 -71.604000 5.348090 -0.000007 -0.000001 -68.176800 34.126500 -13.445000 24.328600 0.000019 0.000005 3.364400 7.131540 -25.337900 22.291600 -0.000001 0.000005 5.811660 5.559290 -9.151120 12.994500 -0.242716 -4.980390 88.224400 5.217390 -71.176200 -5.348130 -0.000001 -0.000004 -67.540700 31.114300 -13.853500 -24.328900 0.000322 -0.000009 1.487720 4.346490 -18.928600 -22.291500 -0.000108 -0.000004 10.643300 5.524980 -7.574350 -2.192480 -6.469440 -0.000000 -169.456000 -16.911300 -3.808590 39.081100 -0.000007 -0.000012 -0.176714 0.443338 21.732400 40.985400 -0.000006 -0.000013 -6.856230 -1.285560 -63.060700 11.754300 -0.000000 0.000003 -0.000121 -0.001208 -16.623700 -2.192510 6.469440 -0.000001 173.791000 23.842900 179.526000 -39.081100 -0.002282 -0.040193 -0.053349 0.164608 18.997900 -40.985400 0.000008 0.000006 -4.347310 1.070830 -63.021000 -11.754300 -0.000006 -0.000006 -0.002986 -0.040444 -18.217900
0.000000 0.000000 0.000000 0.000000 0.000000 -0.000000 -0.787256 92.100600 -0.815766 88.028700 0.708001 2.735130 15.735700 0.000005 -0.000001 83.636500 85.667800 -83.159800 8.984550 -0.406207 -0.000000 0.849482 -0.988743 0.960045 16.377300 -0.000001 -0.000001 1.129160 -2.273670 0.470118 6.456720 -0.000001 -0.000000 2.841550 -2.055690 -0.739335 12.994200 -0.242716 4.980390 -89.947300 -0.156540 -71.392100 5.348090 -0.000007 -0.000001 -68.182800 31.530200 -13.258600 24.328600 0.000019 0.000005 3.467220 7.240620 -25.674300 22.291600 -0.000001 0.000005 7.103450 5.562760 -9.320030 12.994500 -0.242716 -4.980390 88.259400 5.073770 -71.036700 -5.348130 -0.000001 -0.000004 -67.659300 28.385800 -13.702800 -24.328900 0.000322 -0.000009 1.356530 3.924010 -19.101100 -22.291500 -0.000108 -0.000004 11.980100 5.523990 -7.535430 -2.192480 -6.469440 -0.000000 -169.524000 -16.899800 -3.877080 39.081100 -0.000007 -0.000012 -0.175119 0.441584 21.632000 40.985400 -0.000006 -0.000013 -6.856110 -1.370480 -63.001100 11.754300 -0.000000 0.000003 -0.000104 -0.001066 -16.618400 -2.192510 6.469440 -0.000001 173.829000 23.822100 179.413000 -39.081100 -0.002282 -0.040193 -0.051002 0.158351 18.935600 -40.985400 0.000008 0.000006 -4.292130 1.082660 -62.962700 -11.754300 -0.000006 -0.000006 -0.002985 -0.040434 -18.217500
0.000000 0.000000 0.000000 0.000000 0.000000 -0.000000 -0.779581 92.119700 -0.861036 87.993100 0.592036 2.626840 15.735700 0.000005 -0.000001 83.881000 85.715600 -83.378800 8.984550 -0.406207 -0.000000 0.758399 -0.943749 1.009880 16.377300 -0.000001 -0.000001 0.962033 -2.206870 0.420036 6.456720 -0.000001 -0.000000 2.500300 -1.973620 -0.797404 12.994200 -0.242716 4.980390 -89.924700 -0.220729 -71.165100 5.348090 -0.000007 -0.000001 -67.529500 28.170000 -13.424100 24.328600 0.000019 0.000005 3.175050 6.696200 -25.441200 22.291600 -0.000001 0.000005 8.576280 5.566820 -9.523420 12.994500 -0.242716 -4.980390 88.296200 4.915010 -70.853600 -5.348130 -0.000001 -0.000004 -67.197400 25.000600 -13.945000 -24.328900 0.000322 -0.000009 1.249640 3.680060 -18.785100 -22.291500 -0.000108 -0.000004 13.345200 5.521280 -7.419090 -2.192480 -6.469440 -0.000000 -169.541000 -16.908200 -3.952230 39.081100 -0.000007 -0.000012 -0.172783 0.437645 21.544400 40.985400 -0.000006 -0.000013 -6.862090 -1.491420 -62.952800 11.754300 -0.000000 0.000003 -0.000117 -0.001175 -16.622500 -2.192510 6.469440 -0.000001 173.955000 23.771200 179.268000 -39.081100 -0.002282 -0.040193 -0.047117 0.147757 18.848800 -40.985400 0.000008 0.000006 -4.136320 1.078310 -62.874900 -11.754300 -0.000006 -0.000006 -0.002954 -0.040075 -18.202900
0.000000 0.000000 0.000000 0.000000 0.000000 -0.000000 -0.772859 92.135500 -0.918113 87.994200 0.499012 2.531590 15.735700 0.000005 -0.000001 83.883500 85.756800 -83.365400 8.984550 -0.406207 -0.000000 0.676715 -0.935968 1.040870 16.377300 -0.000001 -0.000001 0.678417 -2.126320 0.362758 6.456720 -0.000001 -0.000000 2.168330 -1.905090 -0.822530 12.994200 -0.242716 4.980390 -89.896800 -0.301336 -71.087600 5.348090 -0.000007 -0.000001 -66.136000 24.107100 -14.106000 24.328600 0.000019 0.000005 2.894940 6.339130 -24.607600 22.291600 -0.000001 0.000005 9.475370 5.563160 -9.343920 12.994500 -0.242716 -4.980390 88.350500 4.745870 -70.809500 -5.348130 -0.000001 -0.000004 -65.875300 21.358800 -14.812600 -24.328900 0.000322 -0.000009 1.164520 3.638170 -17.777700 -22.291500 -0.000108 -0.000004 14.621800 5.513510 -7.088040 -2.192480 -6.469440 -0.000000 -169.584000 -17.001600 -4.039450 39.081100 -0.000007 -0.000012 -0.171053 0.435026 21.465000 40.985400 -0.000006 -0.000013 -6.850150 -1.545200 -62.875600 11.754300 -0.000000 0.000003 -0.000102 -0.001049 -16.617800 -2.192510 6.469440 -0.000001 174.032000 23.678700 179.123000 -39.081100 -0.002282 -0.040193 -0.044551 0.140683 18.793300 -40.985400 0.000008 0.000006 -4.054590 1.068720 -62.803900 -11.754300 -0.000006 -0.000006 -0.003017 -0.040792 -18.232000
0.000000 0.000000 0.000000 0.000000 0.000000 -0.000000 -0.762759 92.141400 -0.962989 87.999200 0.424079 2.477670 15.735700 0.000005 -0.000001 83.801300 85.795200 -83.276600 8.984550 -0.406207 -0.000000 0.598967 -0.940546 1.053450 16.377300 -0.000001 -0.000001 0.392505 -2.032850 0.332491 6.456720 -0.000001 -0.000000 1.678870 -1.814580 -0.734461 12.994200 -0.242716 4.980390 -89.828300 -0.499684 -71.038700 5.348090 -0.000007 -0.000001 -64.134200 19.564400 -15.187100 24.328600 0.000019 0.000005 2.621940 6.055150 -23.465600 22.291600 -0.000001 0.000005 9.684570 5.556990 -9.041170 12.994500 -0.242716 -4.980390 88.413500 4.570950 -70.836200 -5.348130 -0.000001 -0.000004 -63.769900 17.409000 -16.094400 -24.328900 0.000322 -0.000009 1.071010 3.635020 -16.445100 -22.291500 -0.000108 -0.000004 14.964500 5.504090 -6.698540 -2.192480 -6.469440 -0.000000 -169.608000 -17.082100 -4.088050 39.081100 -0.000007 -0.000012 -0.170688 0.434760 21.435400 40.985400 -0.000006 -0.000013 -6.833530 -1.518200 -62.842600 11.754300 -0.000000 0.000003 -0.000109 -0.001105 -16.619900 -2.192510 6.469440 -0.000001 174.056000 23.657400 179.033000 -39.081100 -0.002282 -0.040193 -0.045619 0.144103 18.759500 -40.985400 0.000008 0.000006 -4.124440 1.106340 -62.740100 -11.754300 -0.000006 -0.000006 -0.003014 -0.040759 -18.230700
0.000000 0.000000 0.000000 0.000000 0.000000 -0.000000 -0.768670 92.154900 -1.025500 87.980200 0.394044 2.411500 15.735700 0.000005 -0.000001 83.568400 85.847900 -83.025600 8.984550 -0.406207 -0.000000 0.490903 -0.964378 1.088960 16.377300 -0.000001 -0.000001 0.055720 -1.933580 0.316228 6.456720 -0.000001 -0.000000 1.047070 -1.755530 -0.658721 12.994200 -0.242716 4.980390 -89.741000 -0.751718 -70.985400 5.348090 -0.000007 -0.000001 -61.806900 14.470400 -16.513200 24.328600 0.000019 0.000005 2.337220 5.733620 -22.220600 22.291600 -0.000001 0.000005 10.014100 5.552310 -8.816650 12.994500 -0.242716 -4.980390 88.492100 4.341310 -70.824500 -5.348130 -0.000001 -0.000004 -61.436200 12.560900 -17.491200 -24.328900 0.000322 -0.000009 1.064610 3.867310 -15.418200 -22.291500 -0.000108 -0.000004 15.316000 5.487440 -6.037020 -2.192480 -6.469440 -0.000000 -169.638000 -17.102400 -4.192860 39.081100 -0.000007 -0.000012 -0.168145 0.428964 21.404400 40.985400 -0.000006 -0.000013 -6.818440 -1.592460 -62.781600 11.754300 -0.000000 0.000003 -0.000111 -0.001129 -16.620800 -2.192510 6.469440 -0.000001 174.140000 23.655000 178.916000 -39.081100 -0.002282 -0.040193 -0.042638 0.135502 18.736700 -40.985400 0.000008 0.000006 -3.942100 1.104610 -62.693500 -11.754300 -0.000006 -0.000006 -0.003062 -0.041297 -18.252600
0.000000 0.000000 0.000000 0.000000 0.000000 -0.000000 -0.746752 92.172100 -1.063720 87.975100 0.293296 2.278530 15.735700 0.000005 -0.000001 83.591900 85.929900 -83.023400 8.984550 -0.406207 -0.000000 0.328351 -0.945148 1.139050 16.377300 -0.000001 -0.000001 -0.328377 -1.834980 0.325494 6.456720 -0.000001 -0.000000 0.290001 -1.658000 -0.623954 12.994200 -0.242716 4.980390 -89.649000 -1.015010 -70.922000 5.348090 -0.000007 -0.000001 -59.100700 9.487860 -17.967700 24.328600 0.000019 0.000005 2.185130 5.608770 -21.325600 22.291600 -0.000001 0.000005 10.287900 5.546440 -8.539420 12.994500 -0.242716 -4.980390 88.613700 3.977400 -70.767100 -5.348130 -0.000001 -0.000004 -59.244200 6.726540 -18.989200 -24.328900 0.000322 -0.000009 1.032730 3.922200 -14.777900 -22.291500 -0.000108 -0.000004 16.326500 5.482580 -5.846230 -2.192480 -6.469440 -0.000000 -169.685000 -17.196400 -4.283290 39.081100 -0.000007 -0.000012 -0.166517 0.426984 21.305200 40.985400 -0.000006 -0.000013 -6.803830 -1.620500 -62.720500 11.754300 -0.000000 0.000003 -0.000117 -0.001180 -16.622700 -2.192510 6.469440 -0.000001 174.223000 23.622300 178.757000 -39.081100 -0.002282 -0.040193 -0.040362 0.129515 18.639200 -40.985400 0.000008 0.000006 -3.911490 1.128740 -62.593000 -11.754300 -0.000006 -0.000006 -0.003052 -0.041190 -18.248200
